# xmcd
#
# Track frame offsets:
#	151
#	14295
#	25081
#	36890
#	51338
#	65480
#	77629
#	92667
#	102083
#	111579
#	126698
#	145132
#	156160
#	167271
#	178002
#	194802
#	207312
#
# Disc length: 2915 seconds
#
# Revision: 1
# Processed by: cddbd v1.5.2PL0 Copyright (c) Steve Scherf et al.
# Submitted via: EasyCDDAExtractor 16.0.9.1
#
DISCID=f10b6111
DTITLE=Ingemar Jörhag - Guitar Country
DYEAR=2015
DGENRE=Country
TTITLE0=I Way ticket to the blue
TTITLE1=Petals
TTITLE2=Guitar Country
TTITLE3=Vitare än snö
TTITLE4=Det enda som bär
TTITLE5=Cold Cold heart
TTITLE6=Flyttfåglarna
TTITLE7=Josefin
TTITLE8=Gone
TTITLE9=Evighetene morgon
TTITLE10=Hot todd
TTITLE11=Waya Condios
TTITLE12=Sköna stad där i det höga
TTITLE13=Margie
TTITLE14=I fall to pieces
TTITLE15=Letter edge in black
TTITLE16=Still comes araund
EXTD=
EXTT0=
EXTT1=
EXTT2=
EXTT3=
EXTT4=
EXTT5=
EXTT6=
EXTT7=
EXTT8=
EXTT9=
EXTT10=
EXTT11=
EXTT12=
EXTT13=
EXTT14=
EXTT15=
EXTT16=
PLAYORDER=
